<?xml version="1.0" encoding="utf-8"?>
<!-- Generator: Adobe Illustrator 16.0.0, SVG Export Plug-In . SVG Version: 6.00 Build 0)  -->
<!DOCTYPE svg PUBLIC "-//W3C//DTD SVG 1.1//EN" "http://www.w3.org/Graphics/SVG/1.1/DTD/svg11.dtd">
<svg version="1.1" id="Capa_1" xmlns="http://www.w3.org/2000/svg" xmlns:xlink="http://www.w3.org/1999/xlink" x="0px" y="0px"
	 width="31.662px" height="32.242px" viewBox="5.272 5.373 31.662 32.242" enable-background="new 5.272 5.373 31.662 32.242"
	 xml:space="preserve">
<g>
	<g>
		<g>
			<g>
				<path d="M21.104,5.373c-8.729,0-15.832,7.23-15.832,16.121c0,8.887,7.103,16.121,15.832,16.121s15.83-7.231,15.83-16.121
					C36.935,12.604,29.833,5.373,21.104,5.373z M25.041,22.059h-2.576c0,4.191,0,9.349,0,9.349h-3.818c0,0,0-5.105,0-9.349h-1.812
					v-3.302h1.813v-2.137c0-1.532,0.715-3.923,3.854-3.923l2.829,0.011v3.208c0,0-1.721,0-2.052,0c-0.334,0-0.809,0.171-0.809,0.898
					v1.942h2.905L25.041,22.059z"/>
			</g>
		</g>
	</g>
</g>
</svg>
