<?xml version="1.0" encoding="utf-8"?>
<!-- Generator: Adobe Illustrator 16.0.0, SVG Export Plug-In . SVG Version: 6.00 Build 0)  -->
<!DOCTYPE svg PUBLIC "-//W3C//DTD SVG 1.1//EN" "http://www.w3.org/Graphics/SVG/1.1/DTD/svg11.dtd">
<svg version="1.1" id="Capa_1" xmlns="http://www.w3.org/2000/svg" xmlns:xlink="http://www.w3.org/1999/xlink" x="0px" y="0px"
	 width="31.656px" height="32.242px" viewBox="5.275 5.373 31.656 32.242" enable-background="new 5.275 5.373 31.656 32.242"
	 xml:space="preserve">
<g>
	<g>
		<g>
			<g>
				<path d="M21.101,24.72c1.746,0,3.17-1.447,3.17-3.226c0-0.703-0.225-1.352-0.599-1.882c-0.576-0.813-1.513-1.346-2.569-1.346
					c-1.056,0-1.992,0.533-2.57,1.345c-0.375,0.53-0.6,1.179-0.6,1.881C17.933,23.273,19.353,24.72,21.101,24.72z"/>
				<polygon points="28.02,17.548 28.02,14.842 28.02,14.438 27.625,14.439 24.968,14.448 24.978,17.557 				"/>
				<path d="M21.101,5.373c-8.727,0-15.826,7.232-15.826,16.122c0,8.888,7.099,16.12,15.826,16.12s15.83-7.232,15.83-16.12
					C36.931,12.605,29.831,5.373,21.101,5.373z M30.104,19.613v7.508c0,1.953-1.562,3.544-3.479,3.544H15.581
					c-1.92,0-3.479-1.589-3.479-3.544v-7.508V15.87c0-1.954,1.56-3.542,3.479-3.542h11.042c1.92,0,3.482,1.588,3.482,3.542
					L30.104,19.613L30.104,19.613z"/>
				<path d="M26.025,21.495c0,2.765-2.209,5.013-4.923,5.013s-4.922-2.248-4.922-5.013c0-0.665,0.13-1.301,0.361-1.881h-2.687v7.507
					c0,0.969,0.773,1.756,1.725,1.756h11.043c0.952,0,1.726-0.787,1.726-1.756v-7.508h-2.689
					C25.893,20.194,26.025,20.83,26.025,21.495z"/>
			</g>
		</g>
	</g>
</g>
</svg>
