<?xml version="1.0" encoding="utf-8"?>
<!-- Generator: Adobe Illustrator 16.0.0, SVG Export Plug-In . SVG Version: 6.00 Build 0)  -->
<!DOCTYPE svg PUBLIC "-//W3C//DTD SVG 1.1//EN" "http://www.w3.org/Graphics/SVG/1.1/DTD/svg11.dtd">
<svg version="1.1" id="Camada_1" xmlns="http://www.w3.org/2000/svg" xmlns:xlink="http://www.w3.org/1999/xlink" x="0px" y="0px"
	 width="594px" height="243.5px" viewBox="0 -45.5 594 243.5" enable-background="new 0 -45.5 594 243.5" xml:space="preserve">
<g id="SPLINE">
	
		<polyline fill="#FFFFFF" stroke="#3FC0F0" stroke-width="0.7087" stroke-linecap="round" stroke-linejoin="round" stroke-miterlimit="10" points="
		287.38,90.666 270.662,90.666 268.184,96.381 268.184,96.381 267.8,97.422 267.703,98.142 268.015,98.942 269.243,99.582 
		269.58,99.664 269.58,100.037 269.58,101.053 269.58,101.559 269.146,101.559 256.494,101.559 256.059,101.559 256.059,101.053 
		256.059,100.037 256.059,99.664 256.397,99.582 257.31,99.264 257.913,98.836 258.466,98.008 258.466,98.008 259.164,96.566 
		259.164,96.541 273.212,63.94 273.693,62.605 273.693,62.605 273.836,61.672 273.55,60.764 273.55,60.736 272.514,60.068 
		272.225,59.964 272.225,59.615 272.225,58.601 272.225,58.119 272.66,58.119 286.202,58.119 286.66,58.119 286.66,58.601 
		286.66,59.615 286.66,59.988 286.322,60.068 285.288,60.683 285.288,60.683 284.999,61.457 285.119,62.285 285.48,63.272 
		285.48,63.272 300.009,95.979 300.876,97.688 301.548,98.703 301.548,98.703 302.271,99.238 303.234,99.582 303.572,99.664 
		303.572,100.037 303.572,101.053 303.572,101.559 303.137,101.559 289.017,101.559 288.585,101.559 288.585,101.053 
		288.585,100.037 288.585,99.639 288.945,99.582 290.124,99.05 290.436,98.115 290.316,97.447 289.908,96.381 289.908,96.381 
		287.38,90.666 	"/>
</g>
<g id="SPLINE_1_">
	
		<polyline fill="#FFFFFF" stroke="#3FC0F0" stroke-width="0.7087" stroke-linecap="round" stroke-linejoin="round" stroke-miterlimit="10" points="
		270.396,89.705 287.646,89.705 287.91,89.705 288.031,89.972 290.701,95.953 290.701,95.953 291.135,97.154 291.301,98.115 
		290.701,99.744 289.449,100.438 289.449,100.572 302.705,100.572 302.705,100.438 301.887,100.092 300.973,99.396 300.973,99.369 
		300.154,98.195 299.242,96.406 284.687,63.699 284.687,63.699 284.279,62.552 284.132,61.457 284.661,59.988 284.661,59.988 
		285.769,59.268 285.769,59.082 273.092,59.082 273.092,59.268 274.199,60.123 274.199,60.123 274.703,61.672 274.534,62.898 
		274.534,62.898 274.005,64.369 259.933,96.968 259.933,96.968 259.212,98.516 259.212,98.516 258.514,99.531 257.673,100.145 
		256.926,100.438 256.926,100.572 268.713,100.572 268.713,100.412 267.437,99.664 266.836,98.142 266.982,97.154 267.414,95.979 
		267.414,95.953 270.013,89.972 270.133,89.705 270.396,89.705 	"/>
</g>
<g id="SPLINE_2_">
	
		<polyline fill="#FFFFFF" stroke="#3FC0F0" stroke-width="0.7087" stroke-linecap="round" stroke-linejoin="round" stroke-miterlimit="10" points="
		284.59,83.912 279.104,70.535 273.55,83.912 284.59,83.912 	"/>
</g>
<g id="SPLINE_3_">
	
		<polyline fill="#FFFFFF" stroke="#3FC0F0" stroke-width="0.7087" stroke-linecap="round" stroke-linejoin="round" stroke-miterlimit="10" points="
		279.514,69.201 285.649,84.18 285.938,84.873 285.263,84.873 272.874,84.873 272.176,84.873 272.465,84.18 278.721,69.174 
		279.13,68.238 279.514,69.201 	"/>
</g>
<g id="SPLINE_4_">
	
		<polyline fill="#FFFFFF" stroke="#3FC0F0" stroke-width="0.7087" stroke-linecap="round" stroke-linejoin="round" stroke-miterlimit="10" points="
		317.041,93.576 340.088,93.576 340.713,93.496 340.713,93.496 341.098,93.257 341.098,93.257 341.436,92.802 341.725,91.975 
		341.771,91.6 342.107,91.6 343.023,91.6 343.455,91.6 343.455,92.08 343.455,103.029 343.455,103.51 343.023,103.51 
		342.107,103.51 341.771,103.51 341.725,103.162 341.436,102.334 341.098,101.854 341.098,101.854 340.713,101.641 340.713,101.641 
		340.088,101.559 306.457,101.559 306.023,101.559 306.023,101.053 306.023,100.037 306.023,99.689 306.313,99.582 307.083,99.264 
		307.516,98.916 307.516,98.916 307.708,98.488 307.805,97.768 307.805,61.885 307.708,61.164 307.516,60.736 307.516,60.736 
		307.083,60.39 307.083,60.39 306.313,60.068 306.023,59.988 306.023,59.615 306.023,58.601 306.023,58.119 306.457,58.119 
		318.389,58.119 318.822,58.119 318.822,58.601 318.822,59.615 318.822,59.988 318.484,60.068 317.717,60.39 317.33,60.709 
		317.33,60.709 317.09,61.164 317.09,61.164 317.041,61.885 317.041,93.576 	"/>
</g>
<g id="SPLINE_5_">
	
		<polyline fill="#FFFFFF" stroke="#3FC0F0" stroke-width="0.7087" stroke-linecap="round" stroke-linejoin="round" stroke-miterlimit="10" points="
		340.088,94.537 316.609,94.537 316.178,94.537 316.178,94.058 316.178,61.885 316.271,60.896 316.271,60.896 316.658,60.097 
		316.658,60.097 317.33,59.51 317.959,59.242 317.959,59.082 306.891,59.082 306.891,59.242 307.466,59.535 307.466,59.535 
		308.143,60.097 308.143,60.097 308.525,60.896 308.671,61.885 308.671,97.768 308.525,98.757 308.143,99.559 308.143,99.559 
		307.466,100.117 306.891,100.412 306.891,100.572 340.088,100.572 340.953,100.705 340.953,100.705 341.676,101.132 
		341.676,101.132 342.205,101.881 342.445,102.548 342.59,102.548 342.59,92.562 342.445,92.562 342.205,93.229 341.676,93.978 
		341.676,93.978 340.953,94.404 340.953,94.404 340.088,94.537 	"/>
</g>
<g id="SPLINE_6_">
	
		<polyline fill="#FFFFFF" stroke="#3FC0F0" stroke-width="0.7087" stroke-linecap="round" stroke-linejoin="round" stroke-miterlimit="10" points="
		367.416,57.345 372.275,57.72 376.557,58.867 380.357,60.791 383.582,63.485 383.582,63.485 386.371,66.932 388.344,70.855 
		389.549,75.233 389.932,80.094 389.162,86.127 386.9,91.761 383.436,96.381 379.057,99.664 373.717,101.641 367.51,102.309 
		362.699,101.934 358.418,100.785 354.666,98.863 351.395,96.166 348.555,92.562 346.535,88.316 345.43,84.18 345.043,79.799 
		345.813,73.578 348.074,67.892 348.074,67.892 351.441,63.326 355.82,60.068 361.16,58.066 367.416,57.345 367.416,57.345 	"/>
</g>
<g id="SPLINE_7_">
	
		<polyline fill="#FFFFFF" stroke="#3FC0F0" stroke-width="0.7087" stroke-linecap="round" stroke-linejoin="round" stroke-miterlimit="10" points="
		376.268,59.774 372.129,58.682 367.416,58.308 367.416,58.308 361.352,59 356.207,60.923 352.02,64.047 348.795,68.373 
		348.795,68.373 346.68,73.818 345.957,79.799 346.295,83.99 347.354,87.942 349.275,92.027 351.971,95.473 355.1,98.035 
		358.709,99.877 362.846,100.973 367.51,101.345 373.525,100.705 378.674,98.81 382.859,95.658 386.18,91.227 388.344,85.86 
		389.064,80.094 388.682,75.422 387.574,71.229 385.65,67.492 383.004,64.181 383.004,64.181 379.875,61.617 376.268,59.774 	"/>
</g>
<g id="SPLINE_8_">
	
		<polyline fill="#FFFFFF" stroke="#3FC0F0" stroke-width="0.7087" stroke-linecap="round" stroke-linejoin="round" stroke-miterlimit="10" points="
		367.465,65.516 362.557,66.396 358.611,69.014 358.611,69.014 356.781,71.229 355.482,73.766 354.666,76.623 354.424,79.826 
		354.666,83.031 355.482,85.888 356.781,88.424 358.611,90.666 358.611,90.666 362.605,93.283 367.51,94.164 372.418,93.283 
		376.412,90.666 378.242,88.343 379.588,85.567 380.357,82.843 380.598,80.015 380.311,76.703 379.541,73.766 378.242,71.203 
		376.412,69.014 376.412,69.014 372.369,66.424 367.465,65.516 367.465,65.516 	"/>
</g>
<g id="SPLINE_9_">
	
		<polyline fill="#FFFFFF" stroke="#3FC0F0" stroke-width="0.7087" stroke-linecap="round" stroke-linejoin="round" stroke-miterlimit="10" points="
		362.268,65.49 367.465,64.527 367.465,64.555 372.658,65.516 376.988,68.266 376.988,68.266 378.914,70.615 380.311,73.365 
		381.176,76.488 381.465,80.015 381.176,83.031 380.406,85.94 378.963,88.904 376.988,91.388 372.709,94.19 367.51,95.125 
		362.316,94.19 358.033,91.388 358.033,91.388 356.061,89.013 354.666,86.287 353.848,83.217 353.561,79.826 353.848,76.435 
		354.666,73.391 356.061,70.668 358.033,68.293 358.033,68.293 362.268,65.49 	"/>
</g>
<g id="SPLINE_10_">
	
		<polyline fill="#FFFFFF" stroke="#3FC0F0" stroke-width="0.7087" stroke-linecap="round" stroke-linejoin="round" stroke-miterlimit="10" points="
		406.098,82.896 406.098,93.576 430.203,93.576 430.828,93.496 430.828,93.496 431.211,93.257 431.211,93.257 431.5,92.802 
		431.5,92.802 431.789,91.975 431.887,91.6 432.223,91.6 433.137,91.6 433.57,91.6 433.57,92.08 433.57,103.029 433.57,103.51 
		433.137,103.51 432.223,103.51 431.887,103.51 431.789,103.162 431.5,102.334 431.5,102.334 431.211,101.854 431.211,101.854 
		430.828,101.641 430.828,101.641 430.203,101.559 395.512,101.559 395.08,101.559 395.08,101.053 395.08,100.037 395.08,99.689 
		395.369,99.582 396.139,99.264 396.57,98.916 396.57,98.916 396.764,98.488 396.859,97.768 396.859,61.885 396.764,61.164 
		396.57,60.736 396.57,60.736 396.139,60.39 396.139,60.39 395.369,60.068 395.08,59.988 395.08,59.615 395.08,58.601 
		395.08,58.119 395.512,58.119 429.529,58.119 430.152,58.013 430.152,58.013 430.539,57.801 430.539,57.801 430.828,57.32 
		430.828,57.32 431.117,56.492 431.211,56.144 431.549,56.144 432.463,56.144 432.896,56.144 432.896,56.625 432.896,67.572 
		432.896,68.053 432.463,68.053 431.549,68.053 431.211,68.053 431.117,67.705 430.828,66.877 430.828,66.877 430.539,66.396 
		430.539,66.396 430.152,66.156 430.152,66.156 429.529,66.076 406.098,66.076 406.098,75.182 421.156,75.182 421.734,75.1 
		421.734,75.1 422.119,74.86 422.119,74.86 422.455,74.406 422.744,73.553 422.842,73.205 423.176,73.205 424.092,73.205 
		424.523,73.205 424.523,73.686 424.523,84.392 424.523,84.873 424.092,84.873 423.176,84.873 422.842,84.873 422.744,84.498 
		422.455,83.697 422.119,83.217 422.119,83.217 421.734,82.977 421.156,82.896 406.098,82.896 	"/>
</g>
<g id="SPLINE_11_">
	
		<polyline fill="#FFFFFF" stroke="#3FC0F0" stroke-width="0.7087" stroke-linecap="round" stroke-linejoin="round" stroke-miterlimit="10" points="
		405.23,94.058 405.23,82.416 405.23,81.935 405.666,81.935 421.156,81.935 422.023,82.068 422.695,82.496 422.695,82.496 
		423.225,83.244 423.465,83.912 423.66,83.912 423.66,74.166 423.465,74.166 423.225,74.834 422.695,75.58 422.695,75.58 
		422.023,76.008 422.023,76.008 421.156,76.142 405.666,76.142 405.23,76.142 405.23,75.66 405.23,65.595 405.23,65.115 
		405.666,65.115 429.529,65.115 430.393,65.248 430.393,65.248 431.068,65.676 431.117,65.676 431.598,66.424 431.598,66.424 
		431.838,67.091 432.029,67.091 432.029,57.105 431.838,57.105 431.598,57.772 431.598,57.772 431.117,58.521 431.068,58.521 
		430.393,58.949 430.393,58.949 429.529,59.082 395.947,59.082 395.947,59.242 396.521,59.535 396.521,59.535 397.197,60.097 
		397.197,60.097 397.582,60.896 397.727,61.885 397.727,97.768 397.582,98.757 397.197,99.559 397.197,99.559 396.57,100.117 
		395.947,100.412 395.947,100.572 430.203,100.572 431.068,100.705 431.068,100.705 431.789,101.132 431.789,101.132 
		432.27,101.881 432.27,101.881 432.559,102.548 432.703,102.548 432.703,92.562 432.559,92.562 432.27,93.229 432.27,93.257 
		431.789,93.978 431.789,93.978 431.068,94.404 431.068,94.404 430.203,94.537 405.666,94.537 405.23,94.537 405.23,94.058 	"/>
</g>
<g id="SPLINE_12_">
	
		<polyline fill="#FFFFFF" stroke="#3FC0F0" stroke-width="0.7087" stroke-linecap="round" stroke-linejoin="round" stroke-miterlimit="10" points="
		448.916,73.18 448.916,97.768 449.014,98.488 449.205,98.916 449.205,98.916 449.639,99.264 450.408,99.582 450.697,99.689 
		450.697,100.037 450.697,101.053 450.697,101.559 450.266,101.559 439.102,101.559 438.67,101.559 438.67,101.053 438.67,100.037 
		438.67,99.689 438.959,99.582 439.729,99.264 440.16,98.916 440.16,98.916 440.354,98.488 440.449,97.768 440.449,61.856 
		440.354,61.164 440.354,61.164 440.16,60.736 440.16,60.736 439.729,60.39 439.729,60.39 439.006,60.068 438.67,59.988 
		438.67,59.615 438.67,58.601 438.67,58.119 439.102,58.119 452.094,58.119 452.525,58.119 452.525,58.601 452.525,59.615 
		452.525,59.988 452.188,60.068 451.467,60.47 451.467,60.47 451.324,61.057 451.467,61.592 451.947,62.365 472.396,85.834 
		472.396,61.856 472.299,61.164 472.299,61.164 472.107,60.736 472.107,60.736 471.676,60.39 470.953,60.068 470.617,59.988 
		470.617,59.615 470.617,58.601 470.617,58.119 471.049,58.119 482.258,58.119 482.693,58.119 482.693,58.601 482.693,59.615 
		482.693,59.988 482.355,60.068 481.586,60.39 481.199,60.736 481.199,60.736 480.959,61.164 480.959,61.164 480.912,61.856 
		480.912,97.768 480.959,98.488 481.199,98.916 481.199,98.916 481.586,99.264 482.355,99.582 482.693,99.689 482.693,100.037 
		482.693,101.053 482.693,101.559 482.258,101.559 470.23,101.559 469.799,101.559 469.799,101.053 469.799,100.037 469.799,99.664 
		470.137,99.582 470.76,99.238 470.953,98.703 470.711,98.142 469.703,96.86 448.916,73.18 	"/>
</g>
<g id="SPLINE_13_">
	
		<polyline fill="#FFFFFF" stroke="#3FC0F0" stroke-width="0.7087" stroke-linecap="round" stroke-linejoin="round" stroke-miterlimit="10" points="
		448.053,97.768 448.053,71.978 448.053,70.802 448.822,71.656 470.328,96.193 471.387,97.58 471.818,98.703 471.387,99.904 
		470.662,100.412 470.662,100.572 481.826,100.572 481.826,100.412 481.199,100.117 480.527,99.559 480.527,99.559 480.141,98.757 
		480.047,97.768 480.047,61.856 480.141,60.896 480.141,60.896 480.527,60.097 480.527,60.097 481.199,59.535 481.826,59.242 
		481.826,59.082 471.48,59.082 471.48,59.242 472.107,59.535 472.781,60.097 472.781,60.097 473.166,60.896 473.166,60.896 
		473.262,61.856 473.262,87.035 473.262,88.211 472.541,87.355 451.324,63.033 451.324,63.033 450.697,62.045 450.457,61.057 
		450.842,59.803 450.842,59.803 451.66,59.268 451.66,59.082 439.535,59.082 439.535,59.242 440.111,59.535 440.111,59.535 
		440.787,60.097 440.787,60.097 441.17,60.896 441.17,60.896 441.316,61.856 441.316,97.768 441.17,98.757 440.787,99.559 
		440.787,99.559 440.16,100.117 439.535,100.412 439.535,100.572 449.834,100.572 449.834,100.412 449.254,100.117 448.582,99.559 
		448.582,99.559 448.195,98.757 448.053,97.768 	"/>
</g>
<g id="SPLINE_14_">
	
		<path fill="#FFFFFF" stroke="#3FC0F0" stroke-width="0.7087" stroke-linecap="round" stroke-linejoin="round" stroke-miterlimit="10" d="
		M522.482,86.261h-9.049c0,0-0.238,0-0.434,0.026c-0.191,0.08-0.191,0.08-0.336,0.106c-0.24,0.188-0.34,0.293-0.438,0.455
		c-0.094,0.187-0.094,0.187-0.188,0.427c-0.099,0.266-0.191,0.613-0.191,0.613l-0.096,0.347c0,0,0,0-0.338,0
		c-0.914,0-0.914,0-0.914,0h-0.437c0,0,0,0,0-0.479c0-9.877,0-9.877,0-9.877v-0.48c0,0,0,0,0.437,0c0.914,0,0.914,0,0.914,0h0.338
		c0,0,0,0,0.096,0.374c0,0,0,0,0.1,0.348c0.096,0.293,0.189,0.506,0.189,0.506c0.098,0.215,0.189,0.375,0.289,0.453
		c0.24,0.162,0.385,0.215,0.385,0.215c0.146,0.056,0.387,0.08,0.625,0.08c0,0,0,0,18.141,0c0.436,0,0.436,0,0.436,0v0.48
		c0,0,0,0,0,1.016c0,0.375,0,0.375,0,0.375l-0.336,0.105c0,0-0.289,0.08-0.528,0.188c-0.388,0.24-0.528,0.35-0.628,0.455
		c-0.189,0.268-0.238,0.455-0.238,0.455c-0.05,0.187-0.05,0.426-0.05,0.721c0,0,0,0,0,8.703c0,0,0,0,0,0.27
		c0,0.239,0.05,0.427,0.05,0.427s0.049,0.186,0.146,0.32c0.287,0.347,0.479,0.454,0.479,0.454c0.191,0.133,0.48,0.238,0.771,0.318
		c0,0,0,0,0.336,0.107c0,0.348,0,0.348,0,0.348v0.772c0,0,0,0,0,0.293c-3.896,2.457-7.504,4.219-11.063,5.366
		c0,0-3.563,1.175-7.021,1.765c-3.469,0-3.469,0-6.594,0c-2.84-0.399-5.438-1.229-5.438-1.229c-2.55-0.854-4.813-2.082-6.832-3.766
		c0,0,0,0-2.503-2.082c-1.877-2.535-3.127-5.445-3.127-5.445c-1.301-2.938-1.924-6.248-1.924-9.985c0,0,0-3.472,0.576-6.597
		c1.104-2.773,1.104-2.773,2.262-5.524c1.636-2.431,3.896-4.484,3.896-4.484c2.114-1.949,4.568-3.418,7.357-4.379
		c0,0,2.841-0.988,5.969-1.469c3.463,0,3.463,0,4.568,0c1.061,0.055,2.117,0.159,2.117,0.159c1.057,0.135,2.065,0.296,3.029,0.508
		c0,0,1.012,0.24,2.066,0.534c1.104,0.399,1.104,0.399,1.104,0.399c1.104,0.375,2.264,0.803,3.516,1.334c0,0,0,0,0.574,0.27
		c0.526,0.214,1.014,0.349,1.014,0.349c0.383,0.133,0.723,0.188,0.961,0.188c0,0,0.146,0,0.289-0.026
		c0.336-0.188,0.576-0.348,0.814-0.563c0.48-0.051,0.48-0.051,0.48-0.051l0.771,0.453c0,0,0,0,0.383,0.213
		c-0.19,0.428-0.19,0.428-0.19,0.428l-4.476,10.172c0,0,0,0-0.19,0.453c-0.435-0.238-0.435-0.238-0.435-0.238l-0.817-0.454
		c-0.188-0.428-0.188-0.428-0.188-0.428c-0.049-0.32-0.049-0.563-0.101-0.803c0,0,0-0.187-0.05-0.349
		c-0.143-0.213-0.238-0.348-0.334-0.479c0,0-0.191-0.188-0.387-0.375c-0.24-0.187-0.24-0.187-0.24-0.187
		c-0.527-0.455-1.2-0.882-2.021-1.281c0,0-0.816-0.375-1.779-0.748c-1.061-0.319-1.061-0.319-2.166-0.668
		c-1.061-0.239-2.067-0.399-2.067-0.399s-1.011-0.159-2.021-0.238c-0.961,0-0.961,0-2.889,0c-1.777,0.293-3.416,0.908-3.416,0.908
		c-1.588,0.587-3.027,1.494-4.326,2.692c0,0-1.396,1.363-2.506,2.966c-0.725,1.788-0.725,1.788-1.439,3.604
		c-0.338,2.026-0.338,4.271-0.338,4.271c0,2.188,0.338,4.139,1.06,5.873c0,0,0.673,1.763,1.729,3.312
		c1.396,1.334,1.396,1.334,2.693,2.563c1.488,0.905,3.18,1.521,3.18,1.521c1.729,0.615,3.604,0.936,5.77,0.936
		c0,0,1.012,0,2.07-0.079c1.01-0.136,1.01-0.136,2.064-0.269c1.014-0.214,2.021-0.479,2.021-0.479s1.013-0.269,1.926-0.562
		c0.865-0.375,0.865-0.375,1.688-0.695c0.723-0.348,1.395-0.772,1.395-0.772L522.482,86.261L522.482,86.261z"/>
</g>
<g id="SPLINE_15_">
	
		<path fill="#FFFFFF" stroke="#3FC0F0" stroke-width="0.7087" stroke-linecap="round" stroke-linejoin="round" stroke-miterlimit="10" d="
		M513.436,85.3h9.479c0,0,0,0,0.434,0c0,0.479,0,0.479,0,0.479v5.82c0,0,0,0,0,0.268c-1.01,0.643-1.827,1.068-2.74,1.441
		c0,0-0.916,0.375-1.928,0.692c-1.01,0.294-1.01,0.294-1.01,0.294c-1.063,0.269-2.117,0.479-3.176,0.614
		c0,0-1.063,0.133-2.115,0.213c-1.063,0-1.063,0-3.271,0c-2.021-0.319-3.805-0.986-3.805-0.986
		c-1.828-0.643-3.416-1.629-4.764-2.938c0,0,0,0-1.539-1.442c-1.107-1.654-1.879-3.522-1.879-3.522
		c-0.723-1.868-1.104-3.979-1.104-6.274c0,0,0-2.377,0.387-4.538c0.771-1.923,0.771-1.923,1.539-3.871
		c1.154-1.685,2.693-3.151,2.693-3.151c1.348-1.28,2.886-2.271,4.568-2.909c0,0,1.729-0.642,3.606-0.962c2.021,0,2.021,0,3.03,0
		c1.01,0.106,2.117,0.269,2.117,0.269c1.059,0.188,2.113,0.429,3.271,0.773c0,0,1.106,0.348,2.069,0.721
		c0.863,0.399,0.863,0.399,1.729,0.828c0.771,0.455,1.352,0.961,1.352,0.961s0.287,0.24,0.479,0.453
		c0.19,0.188,0.19,0.188,0.386,0.401c0.146,0.214,0.239,0.398,0.239,0.398s0.101,0.188,0.192,0.453
		c0.049,0.293,0.049,0.293,0.094,0.481c0,0.214,0,0.453,0,0.453c0.242,0.134,0.242,0.134,4.332-9.186
		c-0.385,0.055-0.577,0.188-0.77,0.293c0,0,0,0-0.289,0.16c-0.289,0.053-0.529,0.053-0.529,0.053c-0.338,0-0.721-0.053-1.205-0.213
		c0,0-0.479-0.133-1.01-0.373c-0.672-0.268-0.672-0.268-1.875-0.801c-1.154-0.428-2.215-0.803-2.215-0.803s-1.104-0.374-2.113-0.667
		c-0.965-0.214-0.965-0.214-1.926-0.428c-1.014-0.188-2.021-0.293-2.021-0.293c-1.012-0.106-2.021-0.16-3.129-0.16
		c0,0-3.366,0-6.445,0.479c-2.689,0.936-2.689,0.936-5.391,1.871c-2.355,1.416-4.424,3.283-4.424,3.283
		c-2.117,1.947-3.705,4.244-4.768,6.887c0,0-1.061,2.646-1.589,5.635c0,3.338,0,3.338,0,6.916c0.577,3.203,1.778,5.98,1.778,5.98
		c1.205,2.803,2.984,5.18,5.39,7.208c0,0,0,0,1.931,1.575c2.162,1.201,4.615,2.002,4.615,2.002c2.502,0.803,5.241,1.201,8.32,1.201
		c0,0,3.367,0,6.785-0.563c3.463-1.146,3.463-1.146,6.879-2.271c3.514-1.683,7.025-3.896,7.025-3.896c0-0.134-0.24-0.213-0.438-0.32
		c-0.188-0.104-0.188-0.104-0.479-0.268c-0.24-0.187-0.385-0.398-0.385-0.398c-0.191-0.215-0.289-0.479-0.391-0.801
		c0,0,0,0-0.049-0.295c-0.045-0.32-0.045-0.668-0.045-0.668v-8.703c0,0,0-0.375,0.045-0.693c0.049-0.293,0.049-0.293,0.146-0.614
		c0.145-0.269,0.289-0.479,0.289-0.479s0.188-0.215,0.385-0.399c0.287-0.16,0.287-0.16,0.287-0.16
		c0.188-0.107,0.387-0.213,0.627-0.293c-17.705-0.188-17.705-0.188-17.705-0.188c-0.338,0-0.625-0.024-0.865-0.105
		c0,0-0.289-0.106-0.531-0.24c-0.383-0.348-0.527-0.614-0.672-0.907c0,0-0.098-0.213-0.189-0.453c-0.24-0.269-0.24,8.65-0.24,8.65
		c0.338-0.48,0.436-0.668,0.436-0.668c0.146-0.32,0.287-0.563,0.48-0.747c0.432-0.348,0.721-0.427,0.721-0.427
		C512.811,85.353,513.1,85.3,513.436,85.3z"/>
</g>
<g id="SPLINE_16_">
	
		<polyline fill="#FFFFFF" stroke="#3FC0F0" stroke-width="0.7087" stroke-linecap="round" stroke-linejoin="round" stroke-miterlimit="10" points="
		548.701,82.896 548.701,93.576 572.805,93.576 573.432,93.496 573.432,93.496 573.814,93.257 573.814,93.257 574.104,92.802 
		574.104,92.802 574.393,91.975 574.49,91.6 574.828,91.6 575.74,91.6 576.174,91.6 576.174,92.08 576.174,103.029 576.174,103.51 
		575.74,103.51 574.828,103.51 574.49,103.51 574.393,103.162 574.104,102.334 574.104,102.334 573.814,101.854 573.814,101.854 
		573.432,101.641 573.432,101.641 572.805,101.559 538.07,101.559 537.635,101.559 537.635,101.053 537.635,100.037 537.635,99.689 
		537.973,99.582 538.744,99.264 539.174,98.916 539.174,98.916 539.369,98.488 539.418,97.768 539.418,61.885 539.369,61.164 
		539.174,60.736 539.174,60.736 538.744,60.39 538.744,60.39 537.973,60.068 537.635,59.988 537.635,59.615 537.635,58.601 
		537.635,58.119 538.07,58.119 572.084,58.119 572.711,58.013 572.711,58.013 573.094,57.801 573.094,57.801 573.432,57.32 
		573.432,57.32 573.721,56.492 573.814,56.144 574.104,56.144 575.02,56.144 575.5,56.144 575.5,56.625 575.5,67.572 575.5,68.053 
		575.02,68.053 574.104,68.053 573.814,68.053 573.721,67.705 573.432,66.877 573.432,66.877 573.094,66.396 573.094,66.396 
		572.711,66.156 572.711,66.156 572.133,66.076 548.701,66.076 548.701,75.182 563.762,75.182 564.338,75.1 564.338,75.1 
		564.723,74.86 564.723,74.86 565.061,74.406 565.348,73.553 565.396,73.205 565.734,73.205 566.646,73.205 567.082,73.205 
		567.082,73.686 567.082,84.392 567.082,84.873 566.646,84.873 565.734,84.873 565.396,84.873 565.348,84.498 565.061,83.697 
		564.723,83.217 564.723,83.217 564.338,82.977 563.762,82.896 548.701,82.896 	"/>
</g>
<g id="SPLINE_17_">
	
		<polyline fill="#FFFFFF" stroke="#3FC0F0" stroke-width="0.7087" stroke-linecap="round" stroke-linejoin="round" stroke-miterlimit="10" points="
		547.836,94.058 547.836,82.416 547.836,81.935 548.27,81.935 563.762,81.935 564.627,82.068 565.301,82.496 565.301,82.496 
		565.83,83.244 566.07,83.912 566.215,83.912 566.215,74.166 566.07,74.166 565.83,74.834 565.301,75.58 565.301,75.58 
		564.627,76.008 564.627,76.008 563.762,76.142 548.27,76.142 547.836,76.142 547.836,75.66 547.836,65.595 547.836,65.115 
		548.27,65.115 572.133,65.115 573,65.248 573,65.248 573.672,65.676 573.672,65.676 574.203,66.424 574.203,66.424 574.441,67.091 
		574.586,67.091 574.586,57.105 574.441,57.105 574.203,57.772 574.203,57.772 573.672,58.521 573.672,58.521 573,58.949 
		573,58.949 572.084,59.082 538.551,59.082 538.551,59.242 539.129,59.535 539.129,59.535 539.801,60.097 539.801,60.097 
		540.186,60.896 540.281,61.885 540.281,97.768 540.186,98.757 539.801,99.559 539.801,99.559 539.129,100.117 538.551,100.412 
		538.551,100.572 572.805,100.572 573.672,100.705 573.672,100.705 574.393,101.132 574.346,101.132 574.875,101.881 
		574.875,101.881 575.115,102.548 575.309,102.548 575.309,92.562 575.115,92.562 574.875,93.229 574.875,93.257 574.346,93.978 
		574.393,93.978 573.672,94.404 573.672,94.404 572.805,94.537 548.27,94.537 547.836,94.537 547.836,94.058 	"/>
</g>
<g id="SPLINE_18_">
	
		<polyline fill="#FFFFFF" stroke="#FFFFFF" stroke-width="0.7087" stroke-linecap="round" stroke-linejoin="round" stroke-miterlimit="10" points="
		287.646,90.185 270.396,90.185 267.8,96.166 267.271,98.142 269.146,100.037 269.146,101.053 256.494,101.053 256.494,100.037 
		258.2,99.184 259.548,96.755 273.621,64.154 274.271,61.672 272.66,59.615 272.66,58.601 286.202,58.601 286.202,59.615 
		284.567,61.457 285.097,63.485 299.625,96.193 301.262,99.05 303.137,100.037 303.137,101.053 289.017,101.053 289.017,100.037 
		290.869,98.115 290.316,96.166 287.646,90.185 	"/>
</g>
<g id="SPLINE_19_">
	<polyline fill="#065C70" stroke="#FFFFFF" stroke-miterlimit="10" points="285.263,84.392 279.13,69.388 272.874,84.392 
		285.263,84.392 	"/>
</g>
<g id="SPLINE_20_">
	
		<polyline fill="#FFFFFF" stroke="#FFFFFF" stroke-width="0.7087" stroke-linecap="round" stroke-linejoin="round" stroke-miterlimit="10" points="
		316.609,94.058 340.088,94.058 341.387,93.631 342.107,92.08 343.023,92.08 343.023,103.029 342.107,103.029 341.387,101.506 
		340.088,101.053 306.457,101.053 306.457,100.037 307.805,99.238 308.236,97.768 308.236,61.885 307.805,60.416 306.457,59.615 
		306.457,58.601 318.389,58.601 318.389,59.615 316.994,60.416 316.609,61.885 316.609,94.058 	"/>
</g>
<g id="SPLINE_21_">
	
		<polyline fill="#FFFFFF" stroke="#FFFFFF" stroke-width="0.7087" stroke-linecap="round" stroke-linejoin="round" stroke-miterlimit="10" points="
		367.416,57.826 372.178,58.199 376.412,59.322 380.117,61.218 383.293,63.834 386.035,67.199 387.959,71.043 389.113,75.342 
		389.5,80.094 388.777,85.994 386.516,91.494 383.146,96.006 378.865,99.238 373.623,101.186 367.51,101.826 362.797,101.453 
		358.563,100.332 354.859,98.435 351.682,95.82 348.941,92.295 346.92,88.131 345.861,84.07 345.523,79.799 346.246,73.714 
		348.461,68.133 351.73,63.699 356.012,60.496 361.258,58.548 367.416,57.826 	"/>
</g>
<g id="SPLINE_22_">
	<polyline fill="#065C70" stroke="#FFFFFF" stroke-miterlimit="10" points="367.465,65.035 362.41,65.916 358.322,68.64 
		356.447,70.936 355.051,73.578 354.281,76.543 353.992,79.826 354.281,83.11 355.051,86.101 356.447,88.718 358.322,91.014 
		362.459,93.736 367.51,94.645 372.564,93.736 376.703,91.014 378.578,88.638 380.021,85.755 380.744,82.923 381.031,80.015 
		380.744,76.597 379.924,73.553 378.578,70.91 376.703,68.64 372.516,65.97 367.465,65.035 	"/>
</g>
<g id="SPLINE_23_">
	
		<polyline fill="#FFFFFF" stroke="#FFFFFF" stroke-width="0.7087" stroke-linecap="round" stroke-linejoin="round" stroke-miterlimit="10" points="
		405.666,82.416 405.666,94.058 430.203,94.058 431.5,93.631 432.223,92.08 433.137,92.08 433.137,103.029 432.223,103.029 
		431.5,101.506 430.203,101.053 395.512,101.053 395.512,100.037 396.908,99.238 397.293,97.768 397.293,61.885 396.908,60.416 
		395.512,59.615 395.512,58.601 429.529,58.601 430.828,58.146 431.549,56.625 432.463,56.625 432.463,67.572 431.549,67.572 
		430.828,66.022 429.529,65.595 405.666,65.595 405.666,75.66 421.156,75.66 422.408,75.233 423.176,73.686 424.092,73.686 
		424.092,84.392 423.176,84.392 422.408,82.843 421.156,82.416 405.666,82.416 	"/>
</g>
<g id="SPLINE_24_">
	
		<path fill="#FFFFFF" stroke="#FFFFFF" stroke-width="0.7087" stroke-linecap="round" stroke-linejoin="round" stroke-miterlimit="10" d="
		M448.484,71.978v25.791c0,0,0,0.667,0.146,1.146c0.289,0.32,0.289,0.32,0.527,0.644c0.438,0.268,1.105,0.479,1.105,0.479v1.017
		c0,0,0,0-11.164,0c0-1.017,0-1.017,0-1.017c0.678-0.213,1.107-0.479,1.396-0.801c0,0,0.238-0.32,0.389-0.802
		c0-0.667,0-0.667,0-0.667c0-35.911,0-35.911,0-35.911c0-0.64-0.146-1.12-0.389-1.44c0,0-0.287-0.318-0.723-0.612
		c-0.678-0.188-0.678-0.188-0.678-0.188c0-1.014,0-1.014,0-1.014h12.992c0,0,0,0,0,1.014c0,0,0,0-0.818,0.213
		c-0.385,0.481-0.385,1.229-0.385,1.229c0,0.479,0.242,1.017,0.771,1.629c0,0,0,0,21.17,24.349c0-25.178,0-25.178,0-25.178
		c0-0.64-0.146-1.119-0.387-1.441c0,0-0.24-0.317-0.723-0.61c-0.674-0.188-0.674-0.188-0.674-0.188c0-1.015,0-1.015,0-1.015h11.209
		c0,0,0,0,0,1.015c0,0,0,0-0.674,0.188c-0.479,0.293-0.723,0.61-0.723,0.61c-0.289,0.322-0.389,0.804-0.389,1.441c0,0,0,0,0,35.911
		c0,0,0,0,0,0.667c0.1,0.479,0.389,0.803,0.389,0.803c0.238,0.318,0.723,0.586,1.396,0.801c0,0,0,0,0,1.016
		c-12.027,0-12.027,0-12.027,0v-1.016c0,0,0.771-0.188,1.156-0.642c0-0.694,0-0.694,0-1.096c-0.48-0.723-1.35-1.762-1.35-1.762
		L448.484,71.978z"/>
</g>
<g id="SPLINE_25_">
	
		<polyline fill="#FFFFFF" stroke="#FFFFFF" stroke-width="0.7087" stroke-linecap="round" stroke-linejoin="round" stroke-miterlimit="10" points="
		522.916,85.779 513.436,85.779 512.137,86.207 511.416,87.756 510.5,87.756 510.5,77.877 511.416,77.877 512.137,79.453 
		513.436,79.853 531.574,79.853 531.574,80.869 530.18,81.695 529.793,83.164 529.793,91.867 530.18,93.309 531.574,94.11 
		531.574,94.885 526.137,97.93 520.846,100.092 515.6,101.398 510.453,101.826 506.027,101.533 502.033,100.6 498.473,99.076 
		495.346,96.939 492.123,93.551 489.813,89.572 488.416,84.979 487.936,79.799 488.369,74.968 489.572,70.642 491.643,66.851 
		494.527,63.565 497.895,61.057 501.744,59.268 506.123,58.174 511.029,57.826 517.188,58.494 523.779,60.736 526.523,61.563 
		527.869,60.871 528.688,61.324 524.213,71.496 523.395,71.043 523.105,69.574 522.096,68.453 517.092,66.022 510.838,65.035 
		505.352,65.97 500.928,68.746 497.561,73.686 496.453,79.961 497.561,86.047 500.781,90.826 505.4,93.684 511.318,94.645 
		517.574,93.815 522.916,91.6 522.916,85.779 	"/>
</g>
<g id="SPLINE_26_">
	
		<polyline fill="#FFFFFF" stroke="#FFFFFF" stroke-width="0.7087" stroke-linecap="round" stroke-linejoin="round" stroke-miterlimit="10" points="
		548.27,82.416 548.27,94.058 572.805,94.058 574.104,93.631 574.828,92.08 575.74,92.08 575.74,103.029 574.828,103.029 
		574.104,101.506 572.805,101.053 538.07,101.053 538.07,100.037 539.463,99.238 539.85,97.768 539.85,61.885 539.463,60.416 
		538.07,59.615 538.07,58.601 572.084,58.601 573.383,58.146 574.104,56.625 575.02,56.625 575.02,67.572 574.104,67.572 
		573.383,66.022 572.133,65.595 548.27,65.595 548.27,75.66 563.762,75.66 565.012,75.233 565.734,73.686 566.646,73.686 
		566.646,84.392 565.734,84.392 565.012,82.843 563.762,82.416 548.27,82.416 	"/>
</g>
<g id="SPLINE_27_">
	
		<polyline fill="#FFFFFF" stroke="#3FC0F0" stroke-width="0.7087" stroke-linecap="round" stroke-linejoin="round" stroke-miterlimit="10" points="
		279.153,140.246 266.596,140.246 264.721,144.625 264.312,146.039 265.683,147.428 265.683,148.177 256.494,148.177 
		256.494,147.428 257.744,146.814 258.706,145.053 268.931,121.344 269.435,119.525 268.233,118.033 268.233,117.285 
		278.094,117.285 278.094,118.033 276.892,119.367 277.278,120.863 287.861,144.625 289.04,146.707 290.411,147.428 
		290.411,148.177 280.14,148.177 280.14,147.428 281.488,146.039 281.077,144.625 279.153,140.246 	"/>
</g>
<g id="SPLINE_28_">
	
		<polyline fill="#FFFFFF" stroke="#3FC0F0" stroke-width="0.7087" stroke-linecap="round" stroke-linejoin="round" stroke-miterlimit="10" points="
		277.398,136.057 272.946,125.135 268.401,136.057 277.398,136.057 	"/>
</g>
<g id="SPLINE_29_">
	
		<polyline fill="#FFFFFF" stroke="#3FC0F0" stroke-width="0.7087" stroke-linecap="round" stroke-linejoin="round" stroke-miterlimit="10" points="
		315.119,148.177 304.871,126.843 304.871,145.771 305.158,146.841 306.167,147.428 306.167,148.177 298.038,148.177 
		298.038,147.428 299.047,146.841 299.336,145.771 299.336,119.66 299.047,118.621 298.038,118.033 298.038,117.285 
		308.719,117.285 308.719,118.033 307.755,119.287 308.044,120.328 315.6,136.215 323.25,120.598 323.777,119.074 322.768,118.033 
		322.768,117.285 333.256,117.285 333.256,118.033 332.246,118.621 331.957,119.66 331.957,145.771 332.246,146.841 
		333.256,147.428 333.256,148.177 324.596,148.177 324.596,147.428 325.607,146.867 325.896,145.771 325.896,126.843 
		315.119,148.177 	"/>
</g>
<g id="SPLINE_30_">
	
		<polyline fill="#FFFFFF" stroke="#FFFFFF" stroke-width="0.7087" stroke-linecap="round" stroke-linejoin="round" stroke-miterlimit="10" points="
		368.328,131.996 371.844,134.8 372.996,139.285 372.324,143.05 370.254,145.906 367.078,147.641 362.557,148.177 343.553,148.177 
		343.553,147.428 344.563,146.841 344.852,145.771 344.852,119.688 344.563,118.621 343.553,118.033 343.553,117.285 
		362.365,117.285 366.74,117.738 369.629,119.287 371.457,121.904 372.084,125.48 371.119,129.354 368.328,131.996 	"/>
</g>
<g id="SPLINE_31_">
	
		<path fill="#FFFFFF" stroke="#FFFFFF" stroke-width="0.7087" stroke-linecap="round" stroke-linejoin="round" stroke-miterlimit="10" d="
		M350.912,129.566h10.682c0,0,1.588,0,2.695-0.27c0.672-0.533,0.672-0.533,1.396-1.122c0.338-0.936,0.338-2.188,0.338-2.188
		c0-1.309-0.338-2.217-1.014-2.774c0,0-0.672-0.53-1.828-0.827c-1.588,0-1.588,0-1.588,0c-10.682,0-10.682,0-10.682,0
		L350.912,129.566L350.912,129.566z"/>
</g>
<g id="SPLINE_32_">
	
		<path fill="#FFFFFF" stroke="#FFFFFF" stroke-width="0.7087" stroke-linecap="round" stroke-linejoin="round" stroke-miterlimit="10" d="
		M350.912,143.076h10.346c0,0,1.875,0,3.271-0.293c0.863-0.586,0.863-0.586,1.828-1.254c0.479-1.121,0.479-2.67,0.479-2.67
		c0-1.521-0.479-2.617-1.443-3.313c0,0-0.863-0.588-2.213-0.884c-1.924,0-1.924,0-1.924,0c-10.346,0-10.346,0-10.346,0
		L350.912,143.076L350.912,143.076z"/>
</g>
<g id="SPLINE_33_">
	
		<path fill="#FFFFFF" stroke="#3FC0F0" stroke-width="0.7087" stroke-linecap="round" stroke-linejoin="round" stroke-miterlimit="10" d="
		M383.676,145.771V119.66c0,0,0-0.453-0.096-0.801c-0.189-0.238-0.189-0.238-0.387-0.479c-0.336-0.188-0.814-0.348-0.814-0.348
		v-0.748c0,0,0,0,8.66,0c0,0.748,0,0.748,0,0.748c-0.48,0.133-0.818,0.319-0.963,0.588c0,0-0.193,0.239-0.289,0.586
		c0,0.453,0,0.453,0,0.453c0,26.11,0,26.11,0,26.11c0,0.48,0.096,0.828,0.289,1.097c0,0,0.188,0.239,0.523,0.426
		c0.438,0.137,0.438,0.137,0.438,0.137c0,0.748,0,0.748,0,0.748h-8.66c0,0,0,0,0-0.748c0,0,0,0,0.479-0.159
		c0.336-0.188,0.529-0.429,0.529-0.429C383.582,146.602,383.676,146.255,383.676,145.771z"/>
</g>
<g id="SPLINE_34_">
	
		<polyline fill="#FFFFFF" stroke="#3FC0F0" stroke-width="0.7087" stroke-linecap="round" stroke-linejoin="round" stroke-miterlimit="10" points="
		408.646,134.613 408.646,143.076 426.5,143.076 427.412,142.757 427.941,141.635 428.613,141.635 428.613,149.617 427.941,149.617 
		427.412,148.496 426.5,148.177 401.287,148.177 401.287,147.428 402.297,146.841 402.537,145.771 402.537,119.688 402.297,118.621 
		401.287,118.033 401.287,117.285 426.016,117.285 426.93,116.992 427.459,115.869 428.133,115.869 428.133,123.826 
		427.459,123.826 426.93,122.705 426.016,122.386 408.646,122.386 408.646,129.699 419.904,129.699 420.869,129.381 421.35,128.259 
		422.023,128.259 422.023,136.057 421.35,136.057 420.869,134.934 419.904,134.613 408.646,134.613 	"/>
</g>
<g id="SPLINE_35_">
	
		<path fill="#FFFFFF" stroke="#3FC0F0" stroke-width="0.7087" stroke-linecap="round" stroke-linejoin="round" stroke-miterlimit="10" d="
		M445.02,127.031v18.742c0,0,0,0.479,0.1,0.828c0.189,0.237,0.189,0.237,0.389,0.479c0.334,0.188,0.813,0.347,0.813,0.347v0.749
		c0,0,0,0-8.131,0c0-0.749,0-0.749,0-0.749c0.48-0.159,0.816-0.347,1.012-0.587c0,0,0.189-0.238,0.289-0.587
		c0-0.479,0-0.479,0-0.479c0-26.11,0-26.11,0-26.11c0-0.453-0.1-0.802-0.289-1.041c0,0-0.189-0.239-0.527-0.429
		c-0.479-0.157-0.479-0.157-0.479-0.157c0-0.748,0-0.748,0-0.748h9.43c0,0,0,0,0,0.748c0,0,0,0-0.572,0.157
		c-0.289,0.349-0.289,0.882-0.289,0.882c0,0.375,0.188,0.772,0.525,1.2c0,0,0,0,15.442,17.703c0-18.315,0-18.315,0-18.315
		c0-0.453-0.097-0.802-0.286-1.041c0,0-0.193-0.239-0.529-0.429c-0.48-0.157-0.48-0.157-0.48-0.157c0-0.748,0-0.748,0-0.748h8.135
		c0,0,0,0,0,0.748c0,0,0,0-0.479,0.157c-0.342,0.188-0.531,0.429-0.531,0.429c-0.191,0.239-0.287,0.588-0.287,1.041c0,0,0,0,0,26.11
		c0,0,0,0,0,0.479c0.096,0.349,0.287,0.587,0.287,0.587c0.189,0.24,0.531,0.428,1.014,0.587c0,0,0,0,0,0.749c-8.76,0-8.76,0-8.76,0
		v-0.749c0,0,0.578-0.136,0.865-0.452c0-0.508,0-0.508,0-0.802c-0.336-0.534-1.014-1.28-1.014-1.28L445.02,127.031z"/>
</g>
<g id="SPLINE_36_">
	
		<polyline fill="#FFFFFF" stroke="#3FC0F0" stroke-width="0.7087" stroke-linecap="round" stroke-linejoin="round" stroke-miterlimit="10" points="
		494.334,122.386 494.334,145.771 494.625,146.841 495.635,147.428 495.635,148.177 486.975,148.177 486.975,147.428 
		487.984,146.841 488.273,145.771 488.273,122.386 479.66,122.386 478.746,122.705 478.217,123.826 477.545,123.826 
		477.545,115.869 478.217,115.869 478.746,116.992 479.66,117.285 502.9,117.285 503.861,116.992 504.391,115.869 505.063,115.869 
		505.063,123.826 504.391,123.826 503.861,122.705 502.9,122.386 494.334,122.386 	"/>
</g>
<g id="SPLINE_37_">
	
		<polyline fill="#FFFFFF" stroke="#3FC0F0" stroke-width="0.7087" stroke-linecap="round" stroke-linejoin="round" stroke-miterlimit="10" points="
		530.227,140.246 517.717,140.246 515.795,144.625 515.408,146.039 516.805,147.428 516.805,148.177 507.613,148.177 
		507.613,147.428 508.818,146.814 509.828,145.053 520.027,121.344 520.508,119.525 519.354,118.033 519.354,117.285 
		529.217,117.285 529.217,118.033 528.014,119.367 528.398,120.863 538.982,144.625 540.139,146.707 541.484,147.428 
		541.484,148.177 531.236,148.177 531.236,147.428 532.584,146.039 532.201,144.625 530.227,140.246 	"/>
</g>
<g id="SPLINE_38_">
	
		<polyline fill="#FFFFFF" stroke="#3FC0F0" stroke-width="0.7087" stroke-linecap="round" stroke-linejoin="round" stroke-miterlimit="10" points="
		528.494,136.057 524.021,125.135 519.498,136.057 528.494,136.057 	"/>
</g>
<g id="SPLINE_39_">
	
		<polyline fill="#FFFFFF" stroke="#3FC0F0" stroke-width="0.7087" stroke-linecap="round" stroke-linejoin="round" stroke-miterlimit="10" points="
		556.496,143.076 573.574,143.076 574.539,142.757 575.068,141.635 575.74,141.635 575.74,149.617 575.068,149.617 574.539,148.496 
		573.574,148.177 549.137,148.177 549.137,147.428 550.146,146.841 550.436,145.771 550.436,119.688 550.146,118.621 
		549.137,118.033 549.137,117.285 557.795,117.285 557.795,118.033 556.785,118.621 556.496,119.688 556.496,143.076 	"/>
</g>
<g id="SPLINE_40_">
	
		<polyline fill="#FFFFFF" stroke="#3FC0F0" stroke-width="0.7087" stroke-linecap="round" stroke-linejoin="round" stroke-miterlimit="10" points="
		278.864,140.727 266.862,140.727 265.105,144.839 264.841,145.559 264.744,146.039 264.961,146.548 265.803,146.975 
		266.115,147.055 266.115,147.428 266.115,148.177 266.115,148.656 265.683,148.656 256.494,148.656 256.059,148.656 
		256.059,148.177 256.059,147.428 256.059,147.055 256.397,146.975 257.023,146.734 257.023,146.761 257.43,146.439 
		257.839,145.881 258.32,144.839 258.32,144.839 268.545,121.131 268.882,120.17 268.882,120.17 268.977,119.525 268.81,118.939 
		268.81,118.939 268.112,118.486 267.8,118.381 267.8,118.033 267.8,117.285 267.8,116.805 268.233,116.805 278.094,116.805 
		278.529,116.805 278.529,117.285 278.529,118.033 278.529,118.406 278.214,118.514 277.493,118.889 277.325,119.367 
		277.422,119.953 277.422,119.953 277.662,120.648 277.662,120.648 288.247,144.412 288.87,145.641 289.354,146.359 
		289.354,146.359 289.835,146.734 290.486,146.975 290.846,147.029 290.846,147.428 290.846,148.177 290.846,148.656 
		290.411,148.656 280.14,148.656 279.708,148.656 279.708,148.177 279.708,147.428 279.708,147.029 280.07,146.949 280.861,146.602 
		281.053,146.039 280.982,145.586 280.982,145.586 280.693,144.839 280.693,144.839 278.864,140.727 	"/>
</g>
<g id="SPLINE_41_">
	
		<polyline fill="#FFFFFF" stroke="#FFFFFF" stroke-width="0.7087" stroke-linecap="round" stroke-linejoin="round" stroke-miterlimit="10" points="
		266.596,139.766 279.153,139.766 279.419,139.766 279.539,140.031 281.462,144.412 281.462,144.412 281.8,145.291 281.8,145.291 
		281.92,146.039 281.439,147.293 280.91,147.695 289.665,147.695 289.449,147.589 288.751,147.055 288.751,147.055 288.126,146.174 
		287.477,144.839 276.892,121.076 276.58,120.195 276.58,120.195 276.46,119.367 276.892,118.22 277.47,117.766 268.81,117.766 
		269.46,118.326 269.46,118.326 269.867,119.525 269.723,120.464 269.723,120.464 269.34,121.559 259.115,145.24 259.115,145.24 
		258.563,146.389 258.034,147.162 257.384,147.615 257.384,147.615 257.238,147.695 265.008,147.695 264.384,147.242 
		263.877,146.039 263.997,145.291 264.312,144.412 264.312,144.412 266.212,140.061 266.332,139.766 266.596,139.766 	"/>
</g>
<g id="SPLINE_42_">
	
		<polyline fill="#FFFFFF" stroke="#3FC0F0" stroke-width="0.7087" stroke-linecap="round" stroke-linejoin="round" stroke-miterlimit="10" points="
		276.723,135.574 272.946,126.311 269.074,135.574 276.723,135.574 	"/>
</g>
<g id="SPLINE_43_">
	
		<polyline fill="#065C70" stroke="#3FC0F0" stroke-width="0.7087" stroke-linecap="round" stroke-linejoin="round" stroke-miterlimit="10" points="
		273.332,124.949 277.807,135.842 278.071,136.535 277.398,136.535 268.401,136.535 267.726,136.535 267.992,135.842 
		272.539,124.949 272.946,123.986 273.332,124.949 	"/>
</g>
<g id="SPLINE_44_">
	
		<polyline fill="#FFFFFF" stroke="#3FC0F0" stroke-width="0.7087" stroke-linecap="round" stroke-linejoin="round" stroke-miterlimit="10" points="
		314.732,148.391 305.303,128.766 305.303,145.771 305.352,146.255 305.494,146.521 305.734,146.734 306.266,146.975 
		306.602,147.082 306.602,147.428 306.602,148.177 306.602,148.656 306.167,148.656 298.038,148.656 297.605,148.656 
		297.605,148.177 297.605,147.428 297.605,147.082 297.894,146.975 298.423,146.734 298.712,146.521 298.807,146.255 
		298.855,145.771 298.855,119.66 298.807,119.207 298.807,119.207 298.712,118.939 298.423,118.727 297.894,118.514 
		297.605,118.406 297.605,118.033 297.605,117.285 297.605,116.805 298.038,116.805 308.719,116.805 309.152,116.805 
		309.152,117.285 309.152,118.033 309.152,118.406 308.814,118.514 308.333,118.781 308.189,119.287 308.236,119.635 
		308.432,120.089 315.6,135.201 322.863,120.355 323.25,119.525 323.346,119.074 323.199,118.701 323.199,118.701 322.719,118.514 
		322.336,118.461 322.336,118.033 322.336,117.285 322.336,116.805 322.768,116.805 333.256,116.805 333.688,116.805 
		333.688,117.285 333.688,118.033 333.688,118.406 333.398,118.514 332.869,118.727 332.584,118.939 332.438,119.207 
		332.389,119.66 332.389,145.771 332.438,146.255 332.584,146.521 332.869,146.734 333.398,146.975 333.688,147.082 
		333.688,147.428 333.688,148.177 333.688,148.656 333.256,148.656 324.596,148.656 324.162,148.656 324.162,148.177 
		324.162,147.428 324.162,147.055 324.5,146.975 324.98,146.761 325.27,146.548 325.27,146.548 325.414,146.255 325.414,146.255 
		325.461,145.771 325.461,128.686 315.502,148.416 315.07,149.164 314.732,148.391 	"/>
</g>
<g id="SPLINE_45_">
	
		<polyline fill="#FFFFFF" stroke="#FFFFFF" stroke-width="0.7087" stroke-linecap="round" stroke-linejoin="round" stroke-miterlimit="10" points="
		305.254,126.604 315.119,147.162 325.51,126.604 326.328,125 326.328,126.843 326.328,145.771 326.23,146.548 326.23,146.548 
		325.941,147.162 325.414,147.615 325.27,147.695 332.629,147.695 332.438,147.589 331.957,147.162 331.908,147.162 
		331.619,146.548 331.525,145.771 331.525,119.66 331.619,118.914 331.908,118.3 331.957,118.3 332.438,117.871 332.629,117.766 
		323.537,117.766 323.828,118.006 323.828,118.006 324.211,119.074 324.066,119.875 323.633,120.809 315.982,136.455 315.6,137.229 
		315.213,136.43 307.66,120.543 307.42,119.9 307.324,119.287 307.66,118.166 308.094,117.766 298.665,117.766 298.807,117.871 
		299.336,118.3 299.674,118.914 299.674,118.914 299.77,119.66 299.77,145.771 299.674,146.548 299.336,147.162 298.855,147.589 
		298.665,147.695 305.494,147.695 305.352,147.589 304.822,147.162 304.822,147.162 304.534,146.548 304.436,145.771 
		304.436,126.843 304.436,124.922 305.254,126.604 	"/>
</g>
<g id="SPLINE_46_">
	
		<path fill="#FFFFFF" stroke="#FFFFFF" stroke-width="0.7087" stroke-linecap="round" stroke-linejoin="round" stroke-miterlimit="10" d="
		M369.291,131.941c1.254,0.643,2.215,1.521,2.889,2.563c0,0,0.816,1.311,1.25,2.885c0,1.896,0,1.896,0,3.363
		c-0.238,1.334-0.721,2.512-0.721,2.512c-0.482,1.174-1.203,2.188-2.164,3.017c0,0,0,0-0.479,0.428
		c-0.529,0.375-1.105,0.668-1.105,0.668c-0.578,0.293-1.156,0.563-1.779,0.724c0,0-0.627,0.188-1.35,0.315
		c-0.771,0.108-0.771,0.108-1.537,0.188c-0.818,0.054-1.732,0.054-1.732,0.054h-19.004c0,0,0,0-0.436,0c0-0.479,0-0.479,0-0.479
		v-0.748c0,0,0,0,0-0.348c0.287-0.105,0.287-0.105,0.287-0.105c0.24-0.08,0.438-0.16,0.527-0.24c0.289-0.213,0.289-0.213,0.34-0.269
		c0.098-0.349,0.145-0.509,0.145-0.692c0,0,0,0,0-26.084c-0.047-0.349-0.047-0.479-0.047-0.479
		c-0.146-0.271-0.193-0.348-0.287-0.428c-0.146-0.056-0.146-0.056-0.289-0.136c-0.146-0.08-0.389-0.133-0.389-0.133l-0.287-0.104
		c0,0,0,0,0-0.375c0-0.748,0-0.748,0-0.748v-0.479c0,0,0,0,0.436,0c18.813,0,18.813,0,18.813,0c0.912,0,1.729,0.053,2.453,0.133
		c0,0,0.771,0.08,1.439,0.188c0.578,0.16,0.578,0.16,0.578,0.16c0.578,0.16,1.104,0.375,1.639,0.644c0,0,0.479,0.27,0.961,0.588
		c0.436,0.397,0.436,0.397,0.436,0.397c0.865,0.748,1.539,1.687,1.975,2.806c0,0,0.434,1.096,0.674,2.352c0,1.415,0,1.415,0,3.02
		c-0.337,1.361-1.012,2.535-1.012,2.535C370.977,130.527,370.254,131.303,369.291,131.941z"/>
</g>
<g id="SPLINE_47_">
	
		<path fill="#FFFFFF" stroke="#FFFFFF" stroke-width="0.7087" stroke-linecap="round" stroke-linejoin="round" stroke-miterlimit="10" d="
		M371.457,135.066c-0.723-1.121-1.828-2.002-3.318-2.617c0,0,0,0-0.914-0.428c0.914-0.48,0.914-0.48,0.914-0.48
		c1.152-0.609,2.068-1.438,2.646-2.428c0,0,0.576-1.016,0.865-2.217c0-1.416,0-1.416,0-2.697c-0.189-1.121-0.576-2.107-0.576-2.107
		c-0.386-0.96-0.963-1.762-1.73-2.432c0,0,0,0-0.383-0.346c-0.436-0.295-0.867-0.535-0.867-0.535
		c-0.479-0.213-0.963-0.428-1.492-0.563c0,0,0,0-0.527-0.135c-0.623-0.133-1.299-0.188-1.299-0.188s-0.723-0.082-1.49-0.134
		c-0.914,0-0.914,0-0.914,0c-18.188,0-18.188,0-18.188,0c0.195,0.104,0.389,0.214,0.578,0.373c0.24,0.349,0.338,0.563,0.436,0.802
		c0,0,0.047,0.213,0.098,0.479c0,0.271,0,0.271,0,0.271c0,26.084,0,26.084,0,26.084c0,0.293-0.051,0.534-0.098,0.771
		c0,0-0.098,0.239-0.189,0.453c-0.098,0.161-0.098,0.161-0.24,0.319c-0.191,0.16-0.385,0.269-0.385,0.269
		c-0.192,0.104-0.192,0.104,18.188,0.104c0,0,0,0,0.861,0c0.818-0.055,1.539-0.134,1.539-0.134c0.727-0.079,1.396-0.215,1.977-0.374
		c0,0,0.575-0.188,1.152-0.4c0.479-0.267,0.479-0.267,1.012-0.562c0.479-0.319,0.865-0.692,0.865-0.692s0.865-0.75,1.539-1.655
		c0.387-1.017,0.387-1.017,0.818-2.058c0.238-1.199,0.238-2.537,0.238-2.537C372.564,137.604,372.178,136.215,371.457,135.066z"/>
</g>
<g id="SPLINE_48_">
	
		<polyline fill="#FFFFFF" stroke="#FFFFFF" stroke-width="0.7087" stroke-linecap="round" stroke-linejoin="round" stroke-miterlimit="10" points="
		351.346,129.086 361.592,129.086 363.518,128.898 364.672,128.393 364.672,128.393 365.348,127.432 365.588,125.988 
		364.77,123.613 363.566,123.053 361.592,122.865 351.346,122.865 351.346,129.086 	"/>
</g>
<g id="SPLINE_49_">
	<path fill="#065C70" stroke="#FFFFFF" stroke-miterlimit="10" d="M361.592,130.047h-10.68c0,0,0,0-0.438,0c0-0.479,0-0.479,0-0.479
		v-7.185c0,0,0,0,0-0.479c0.438,0,0.438,0,0.438,0h10.68c0,0,0.816,0,1.541,0.08c0.578,0.136,0.578,0.136,1.252,0.295
		c0.479,0.24,0.865,0.535,0.865,0.535c0,0.023,0.814,0.666,1.203,1.707c0,1.47,0,1.47,0,2.162c-0.102,0.613-0.289,1.123-0.289,1.123
		c-0.238,0.562-0.527,1.014-0.965,1.357c0,0,0,0-0.385,0.293c-0.479,0.24-1.104,0.375-1.104,0.375
		C363.133,129.967,362.41,130.047,361.592,130.047z"/>
</g>
<g id="SPLINE_50_">
	
		<path fill="#FFFFFF" stroke="#FFFFFF" stroke-width="0.7087" stroke-linecap="round" stroke-linejoin="round" stroke-miterlimit="10" d="
		M351.346,142.595h9.912c0,0,0.912,0,1.686-0.055c0.674-0.158,0.674-0.158,1.299-0.293c0.527-0.187,0.914-0.455,0.914-0.455
		c0.387-0.293,0.725-0.666,0.914-1.146c0,0,0.189-0.48,0.338-1.068c0-0.721,0-0.721,0-1.414c-0.146-0.588-0.338-1.066-0.338-1.066
		s-0.189-0.479-0.527-0.854c-0.387-0.293-0.387-0.293-0.387-0.293c-0.387-0.268-0.863-0.453-1.539-0.586c0,0-0.627-0.16-1.441-0.215
		c-0.914,0-0.914,0-0.914,0c-9.912,0-9.912,0-9.912,0L351.346,142.595L351.346,142.595z"/>
</g>
<g id="SPLINE_51_">
	<polyline fill="#065C70" stroke="#FFFFFF" stroke-miterlimit="10" points="361.258,143.559 350.912,143.559 350.48,143.559 
		350.48,143.076 350.48,134.666 350.48,134.186 350.912,134.186 361.258,134.186 363.807,134.398 365.588,135.121 365.588,135.121 
		366.838,136.695 366.838,136.695 367.27,138.857 366.838,141.074 365.588,142.595 365.588,142.595 363.807,143.344 
		361.258,143.559 	"/>
</g>
<g id="SPLINE_52_">
	
		<polyline fill="#FFFFFF" stroke="#3FC0F0" stroke-width="0.7087" stroke-linecap="round" stroke-linejoin="round" stroke-miterlimit="10" points="
		383.244,145.771 383.244,119.66 383.195,119.207 383.195,119.207 383.053,118.939 382.813,118.727 382.283,118.514 
		381.945,118.406 381.945,118.033 381.945,117.285 381.945,116.805 382.379,116.805 391.039,116.805 391.52,116.805 391.52,117.285 
		391.52,118.033 391.52,118.406 391.182,118.514 390.652,118.701 390.652,118.701 390.363,118.914 390.363,118.914 390.27,119.207 
		390.221,119.66 390.221,145.771 390.27,146.255 390.27,146.255 390.363,146.548 390.412,146.548 390.652,146.761 391.182,146.975 
		391.52,147.055 391.52,147.428 391.52,148.177 391.52,148.656 391.039,148.656 382.379,148.656 381.945,148.656 381.945,148.177 
		381.945,147.428 381.945,147.082 382.283,146.975 382.813,146.734 383.053,146.521 383.195,146.255 383.244,145.771 	"/>
</g>
<g id="SPLINE_53_">
	
		<polyline fill="#FFFFFF" stroke="#FFFFFF" stroke-width="0.7087" stroke-linecap="round" stroke-linejoin="round" stroke-miterlimit="10" points="
		384.111,119.66 384.111,145.771 384.014,146.548 383.725,147.162 383.195,147.589 383.004,147.695 390.412,147.695 390.27,147.615 
		389.74,147.162 389.402,146.548 389.402,146.548 389.354,145.771 389.354,119.66 389.402,118.914 389.74,118.3 389.74,118.3 
		390.27,117.848 390.27,117.848 390.412,117.766 383.053,117.766 383.195,117.871 383.725,118.3 384.014,118.914 384.014,118.914 
		384.111,119.66 	"/>
</g>
<g id="SPLINE_54_">
	
		<polyline fill="#FFFFFF" stroke="#3FC0F0" stroke-width="0.7087" stroke-linecap="round" stroke-linejoin="round" stroke-miterlimit="10" points="
		409.08,135.094 409.08,142.595 426.5,142.595 426.93,142.543 427.17,142.41 427.17,142.41 427.363,142.115 427.555,141.529 
		427.652,141.154 427.941,141.154 428.613,141.154 429.049,141.154 429.049,141.635 429.049,149.617 429.049,150.1 428.613,150.1 
		427.941,150.1 427.652,150.1 427.555,149.725 427.363,149.164 427.17,148.843 427.17,148.843 426.93,148.709 426.93,148.709 
		426.5,148.656 401.287,148.656 400.855,148.656 400.855,148.177 400.855,147.428 400.855,147.082 401.141,146.975 401.67,146.734 
		401.959,146.521 402.057,146.255 402.105,145.771 402.105,119.688 402.057,119.207 401.959,118.939 401.67,118.727 
		401.141,118.514 400.855,118.406 400.855,118.033 400.855,117.285 400.855,116.805 401.287,116.805 426.016,116.805 426.4,116.752 
		426.641,116.619 426.641,116.619 426.834,116.297 427.027,115.736 427.123,115.391 427.459,115.391 428.133,115.391 
		428.566,115.391 428.566,115.869 428.566,123.826 428.566,124.309 428.133,124.309 427.459,124.309 427.123,124.309 
		427.027,123.961 426.834,123.371 426.641,123.053 426.641,123.053 426.4,122.918 426.4,122.918 426.016,122.865 409.08,122.865 
		409.08,129.22 419.904,129.22 420.34,129.166 420.34,129.166 420.58,129.033 420.771,128.714 420.965,128.152 421.061,127.777 
		421.35,127.777 422.023,127.777 422.455,127.777 422.455,128.259 422.455,136.057 422.455,136.535 422.023,136.535 421.35,136.535 
		421.061,136.535 420.965,136.188 420.771,135.6 420.531,135.281 420.531,135.281 420.34,135.146 419.904,135.094 409.08,135.094 	
		"/>
</g>
<g id="SPLINE_55_">
	
		<polyline fill="#FFFFFF" stroke="#FFFFFF" stroke-width="0.7087" stroke-linecap="round" stroke-linejoin="round" stroke-miterlimit="10" points="
		408.215,143.076 408.215,134.613 408.215,134.133 408.646,134.133 419.904,134.133 420.58,134.238 421.156,134.586 
		421.156,134.586 421.541,135.146 421.59,135.332 421.59,128.979 421.541,129.166 421.109,129.755 420.58,130.074 420.58,130.074 
		419.904,130.182 408.646,130.182 408.215,130.182 408.215,129.699 408.215,122.386 408.215,121.904 408.646,121.904 
		426.016,121.904 426.641,122.011 426.641,122.011 427.219,122.332 427.219,122.357 427.604,122.918 427.701,123.105 
		427.701,116.564 427.604,116.752 427.219,117.339 427.219,117.339 426.641,117.686 426.016,117.766 401.91,117.766 
		402.057,117.871 402.586,118.3 402.586,118.3 402.922,118.939 402.971,119.688 402.971,145.771 402.922,146.548 402.586,147.162 
		402.105,147.589 401.91,147.695 426.5,147.695 427.17,147.803 427.17,147.803 427.701,148.121 428.133,148.709 428.182,148.896 
		428.182,142.355 428.133,142.543 427.701,143.131 427.17,143.449 426.5,143.559 408.646,143.559 408.215,143.559 408.215,143.076 	
		"/>
</g>
<g id="SPLINE_56_">
	
		<polyline fill="#FFFFFF" stroke="#3FC0F0" stroke-width="0.7087" stroke-linecap="round" stroke-linejoin="round" stroke-miterlimit="10" points="
		445.453,128.23 445.453,145.771 445.502,146.255 445.646,146.521 445.887,146.734 446.416,146.975 446.754,147.082 
		446.754,147.428 446.754,148.177 446.754,148.656 446.318,148.656 438.188,148.656 437.756,148.656 437.756,148.177 
		437.756,147.428 437.756,147.082 438.045,146.975 438.572,146.734 438.861,146.521 438.959,146.255 439.055,145.771 
		439.055,119.66 438.959,119.207 438.959,119.207 438.861,118.939 438.572,118.727 438.045,118.514 437.756,118.406 
		437.756,118.033 437.756,117.285 437.756,116.805 438.188,116.805 447.619,116.805 448.053,116.805 448.053,117.285 
		448.053,118.033 448.053,118.406 447.715,118.514 447.283,118.755 447.283,118.755 447.186,119.074 447.619,119.93 
		462.244,136.775 462.244,119.66 462.195,119.207 462.1,118.939 461.813,118.727 461.813,118.727 461.281,118.514 460.994,118.406 
		460.994,118.033 460.994,117.285 460.994,116.805 461.426,116.805 469.559,116.805 469.99,116.805 469.99,117.285 469.99,118.033 
		469.99,118.406 469.652,118.514 469.125,118.727 469.125,118.727 468.883,118.939 468.74,119.207 468.691,119.66 468.691,145.771 
		468.74,146.255 468.883,146.521 469.125,146.734 469.652,146.975 469.99,147.082 469.99,147.428 469.99,148.177 469.99,148.656 
		469.559,148.656 460.801,148.656 460.369,148.656 460.369,148.177 460.369,147.428 460.369,147.055 460.705,146.975 
		461.139,146.761 461.139,146.761 461.234,146.468 461.041,146.119 460.369,145.211 445.453,128.23 	"/>
</g>
<g id="SPLINE_57_">
	
		<polyline fill="#FFFFFF" stroke="#FFFFFF" stroke-width="0.7087" stroke-linecap="round" stroke-linejoin="round" stroke-miterlimit="10" points="
		444.588,145.771 444.588,127.031 444.588,125.854 445.309,126.709 460.994,144.545 461.764,145.559 462.1,146.468 461.764,147.428 
		461.426,147.695 468.883,147.695 468.74,147.589 468.211,147.162 468.211,147.162 467.922,146.548 467.824,145.771 467.824,119.66 
		467.922,118.914 468.211,118.3 468.211,118.3 468.74,117.871 468.74,117.871 468.883,117.766 462.053,117.766 462.244,117.871 
		462.244,117.871 462.725,118.3 463.063,118.914 463.16,119.66 463.16,137.979 463.16,139.15 462.389,138.297 446.994,120.598 
		446.994,120.598 446.318,119.074 446.656,118.086 446.656,118.086 446.994,117.766 438.814,117.766 439.006,117.871 439.488,118.3 
		439.824,118.914 439.824,118.914 439.92,119.66 439.92,145.771 439.824,146.548 439.488,147.162 439.006,147.589 438.814,147.695 
		445.695,147.695 445.502,147.589 444.973,147.162 444.973,147.162 444.684,146.548 444.588,145.771 	"/>
</g>
<g id="SPLINE_58_">
	
		<polyline fill="#FFFFFF" stroke="#3FC0F0" stroke-width="0.7087" stroke-linecap="round" stroke-linejoin="round" stroke-miterlimit="10" points="
		494.77,122.865 494.77,145.771 494.816,146.255 494.961,146.521 495.203,146.734 495.73,146.975 496.066,147.082 496.066,147.428 
		496.066,148.177 496.066,148.656 495.635,148.656 486.975,148.656 486.543,148.656 486.543,148.177 486.543,147.428 
		486.543,147.082 486.828,146.975 487.357,146.734 487.646,146.521 487.744,146.255 487.84,145.771 487.84,122.865 479.66,122.865 
		479.229,122.918 479.035,123.053 478.988,123.053 478.795,123.345 478.795,123.345 478.602,123.961 478.555,124.309 
		478.217,124.309 477.545,124.309 477.109,124.309 477.109,123.826 477.109,115.869 477.109,115.391 477.545,115.391 
		478.217,115.391 478.506,115.391 478.602,115.736 478.844,116.324 479.035,116.619 479.229,116.752 479.229,116.752 
		479.66,116.805 502.9,116.805 503.332,116.752 503.332,116.752 503.572,116.619 503.764,116.324 503.764,116.324 503.959,115.736 
		504.053,115.391 504.391,115.391 505.063,115.391 505.498,115.391 505.498,115.869 505.498,123.826 505.498,124.309 
		505.063,124.309 504.391,124.309 504.053,124.309 503.959,123.961 503.764,123.345 503.764,123.345 503.572,123.053 
		503.572,123.053 503.332,122.918 502.9,122.865 494.77,122.865 	"/>
</g>
<g id="SPLINE_59_">
	
		<polyline fill="#FFFFFF" stroke="#FFFFFF" stroke-width="0.7087" stroke-linecap="round" stroke-linejoin="round" stroke-miterlimit="10" points="
		493.902,145.771 493.902,122.386 493.902,121.904 494.334,121.904 502.9,121.904 503.572,122.011 504.15,122.332 504.15,122.332 
		504.535,122.918 504.535,122.918 504.631,123.105 504.631,116.591 504.535,116.752 504.535,116.752 504.15,117.339 
		503.572,117.686 503.572,117.686 502.9,117.766 479.66,117.766 478.988,117.686 478.988,117.686 478.459,117.339 478.459,117.339 
		478.074,116.777 477.977,116.564 477.977,123.105 478.025,122.918 478.025,122.918 478.459,122.332 478.459,122.332 
		478.988,122.011 479.66,121.904 488.273,121.904 488.705,121.904 488.705,122.386 488.705,145.771 488.611,146.548 
		488.273,147.162 487.793,147.589 487.598,147.695 495.01,147.695 494.816,147.589 494.287,147.162 494.287,147.162 
		493.998,146.548 493.902,145.771 	"/>
</g>
<g id="SPLINE_60_">
	
		<polyline fill="#FFFFFF" stroke="#3FC0F0" stroke-width="0.7087" stroke-linecap="round" stroke-linejoin="round" stroke-miterlimit="10" points="
		529.986,140.727 517.959,140.727 516.178,144.839 515.938,145.559 515.938,145.559 515.84,146.039 516.035,146.548 
		516.898,146.975 517.236,147.055 517.236,147.428 517.236,148.177 517.236,148.656 516.805,148.656 507.613,148.656 
		507.182,148.656 507.182,148.177 507.182,147.428 507.182,147.055 507.518,146.975 508.143,146.734 508.143,146.761 
		508.529,146.439 508.912,145.881 509.393,144.839 509.441,144.839 519.643,121.131 519.979,120.195 520.076,119.525 
		519.883,118.939 519.883,118.939 519.209,118.486 518.92,118.381 518.92,118.033 518.92,117.285 518.92,116.805 519.354,116.805 
		529.217,116.805 529.65,116.805 529.65,117.285 529.65,118.033 529.65,118.406 529.313,118.514 528.592,118.889 528.445,119.367 
		528.494,119.953 528.494,119.953 528.785,120.648 528.785,120.648 539.369,144.412 539.945,145.641 540.428,146.359 
		540.428,146.359 540.91,146.734 541.582,146.975 541.918,147.029 541.918,147.428 541.918,148.177 541.918,148.656 
		541.484,148.656 531.236,148.656 530.805,148.656 530.805,148.177 530.805,147.428 530.805,147.029 531.189,146.949 
		531.959,146.602 532.152,146.039 532.055,145.586 532.055,145.586 531.766,144.839 531.766,144.839 529.986,140.727 	"/>
</g>
<g id="SPLINE_61_">
	
		<polyline fill="#FFFFFF" stroke="#FFFFFF" stroke-width="0.7087" stroke-linecap="round" stroke-linejoin="round" stroke-miterlimit="10" points="
		517.717,139.766 530.227,139.766 530.516,139.766 530.611,140.031 532.584,144.412 532.584,144.412 532.873,145.291 
		532.873,145.291 533.016,146.039 532.535,147.293 532.006,147.695 540.764,147.695 540.57,147.589 539.85,147.055 539.85,147.055 
		539.223,146.174 538.551,144.839 528.014,121.076 527.676,120.195 527.676,120.195 527.582,119.367 528.014,118.22 
		528.592,117.766 519.93,117.766 520.557,118.326 520.557,118.326 520.941,119.525 520.797,120.464 520.412,121.559 510.211,145.24 
		510.211,145.24 509.682,146.389 509.152,147.162 508.48,147.615 508.48,147.615 508.336,147.695 516.129,147.695 515.457,147.242 
		514.977,146.039 515.119,145.291 515.119,145.291 515.408,144.412 515.408,144.412 517.334,140.061 517.428,139.766 
		517.717,139.766 	"/>
</g>
<g id="SPLINE_62_">
	
		<polyline fill="#FFFFFF" stroke="#3FC0F0" stroke-width="0.7087" stroke-linecap="round" stroke-linejoin="round" stroke-miterlimit="10" points="
		527.822,135.574 524.021,126.311 520.17,135.574 527.822,135.574 	"/>
</g>
<g id="SPLINE_63_">
	
		<polyline fill="#065C70" stroke="#FFFFFF" stroke-width="0.7087" stroke-linecap="round" stroke-linejoin="round" stroke-miterlimit="10" points="
		524.453,124.949 528.881,135.842 529.168,136.535 528.494,136.535 519.498,136.535 518.824,136.535 519.113,135.842 
		523.635,124.949 524.068,123.986 524.453,124.949 	"/>
</g>
<g id="SPLINE_64_">
	
		<polyline fill="#FFFFFF" stroke="#3FC0F0" stroke-width="0.7087" stroke-linecap="round" stroke-linejoin="round" stroke-miterlimit="10" points="
		556.928,142.595 573.574,142.595 574.01,142.543 574.25,142.41 574.25,142.41 574.441,142.115 574.633,141.529 574.73,141.154 
		575.068,141.154 575.74,141.154 576.174,141.154 576.174,141.635 576.174,149.617 576.174,150.1 575.74,150.1 575.068,150.1 
		574.73,150.1 574.633,149.725 574.441,149.164 574.25,148.843 574.25,148.843 574.01,148.709 573.574,148.656 549.137,148.656 
		548.701,148.656 548.701,148.177 548.701,147.428 548.701,147.082 548.99,146.975 549.52,146.734 549.809,146.521 549.906,146.255 
		550,145.771 550,119.688 549.906,119.207 549.809,118.939 549.52,118.727 548.99,118.514 548.701,118.406 548.701,118.033 
		548.701,117.285 548.701,116.805 549.137,116.805 557.795,116.805 558.229,116.805 558.229,117.285 558.229,118.033 
		558.229,118.406 557.893,118.514 557.363,118.701 557.363,118.701 557.121,118.914 557.121,118.914 556.977,119.207 
		556.977,119.207 556.928,119.688 556.928,142.595 	"/>
</g>
<g id="SPLINE_65_">
	
		<polyline fill="#FFFFFF" stroke="#FFFFFF" stroke-width="0.7087" stroke-linecap="round" stroke-linejoin="round" stroke-miterlimit="10" points="
		573.574,143.559 556.496,143.559 556.064,143.559 556.064,143.076 556.064,119.688 556.16,118.939 556.16,118.939 556.447,118.3 
		556.447,118.3 556.977,117.848 556.977,117.848 557.121,117.766 549.76,117.766 549.906,117.871 550.436,118.3 550.436,118.3 
		550.77,118.939 550.867,119.688 550.867,145.771 550.77,146.548 550.436,147.162 549.953,147.589 549.76,147.695 573.574,147.695 
		574.25,147.803 574.828,148.121 575.211,148.709 575.309,148.896 575.309,142.355 575.211,142.543 574.828,143.131 574.25,143.449 
		573.574,143.559 	"/>
</g>
<g id="SPLINE_66_">
	
		<polyline fill="#FFFFFF" stroke="#FFFFFF" stroke-width="0.5102" stroke-linecap="round" stroke-linejoin="round" stroke-miterlimit="10" points="
		202.414,172.445 192.696,171.75 183.266,169.668 174.246,166.252 165.73,161.553 157.815,155.678 150.646,148.736 144.27,140.727 
		138.859,131.729 134.552,122.037 131.498,111.918 129.644,101.533 129.02,91.014 129.644,80.494 131.498,70.107 134.552,59.988 
		138.859,50.297 144.27,41.301 150.646,33.289 157.815,26.32 165.73,20.474 174.246,15.803 183.266,12.386 192.696,10.275 
		202.414,9.555 202.414,19.967 193.946,20.581 185.719,22.424 177.855,25.414 170.42,29.498 163.515,34.599 157.262,40.66 
		151.705,47.654 146.989,55.505 143.237,63.94 140.542,72.777 138.956,81.828 138.401,91.014 138.956,100.197 140.542,109.248 
		143.237,118.086 146.989,126.523 151.705,134.373 157.262,141.367 163.515,147.428 170.42,152.527 177.855,156.641 
		185.719,159.576 193.946,161.445 202.414,162.033 202.414,172.445 	"/>
</g>
<g id="SPLINE_67_">
	<polyline fill="#FFFFFF" stroke="#FFFFFF" stroke-miterlimit="10" points="129.02,172.498 129.02,25.574 129.02,9.5 122.404,9.5 
		16.919,172.498 28.466,172.498 119.662,31.608 119.662,172.498 129.02,172.498 	"/>
</g>
<g id="SPLINE_68_">
	
		<path fill="#FFFFFF" stroke="#FDFDFD" stroke-width="0.5102" stroke-linecap="round" stroke-linejoin="round" stroke-miterlimit="10" d="
		M105.3,94.058h125.983c0,0,0,0,0,94.674c-9.718,0-9.718,0-9.718,0v-83.86c0,0,0,0-13.327,0c-102.938,0-102.938,0-102.938,0V94.058z
		"/>
</g>
</svg>
