<?xml version="1.0" encoding="utf-8"?>
<!-- Generator: Adobe Illustrator 16.0.0, SVG Export Plug-In . SVG Version: 6.00 Build 0)  -->
<!DOCTYPE svg PUBLIC "-//W3C//DTD SVG 1.1//EN" "http://www.w3.org/Graphics/SVG/1.1/DTD/svg11.dtd">
<svg version="1.1" id="Capa_1" xmlns="http://www.w3.org/2000/svg" xmlns:xlink="http://www.w3.org/1999/xlink" x="0px" y="0px"
	 width="23.742px" height="24.182px" viewBox="0 0 23.742 24.182" enable-background="new 0 0 23.742 24.182" xml:space="preserve">
<g>
	<g>
		<path d="M11.872,0.001C5.316,0.001,0,5.415,0,12.091c0,6.677,5.315,12.09,11.871,12.09c6.555,0,11.87-5.413,11.87-12.09
			C23.742,5.415,18.426,0.001,11.872,0.001z M18.139,17.641L17.19,18.61c-0.17,0.174-0.668,0.279-0.684,0.279
			c-3.007,0.027-5.902-1.176-8.029-3.343c-2.133-2.174-3.314-5.133-3.282-8.206c0-0.001,0.108-0.493,0.278-0.664l0.951-0.968
			C6.77,5.352,7.438,5.191,7.906,5.351l0.2,0.068c0.468,0.159,0.957,0.685,1.085,1.169L9.67,8.376
			C9.797,8.86,9.624,9.552,9.276,9.905l-0.633,0.647c0.623,2.35,2.434,4.193,4.74,4.829l0.635-0.646
			c0.349-0.354,1.027-0.531,1.502-0.4l1.756,0.487c0.475,0.134,0.99,0.631,1.146,1.104l0.066,0.206
			C18.645,16.608,18.489,17.29,18.139,17.641z"/>
	</g>
</g>
</svg>
