<?xml version="1.0" encoding="utf-8"?>
<!-- Generator: Adobe Illustrator 16.0.0, SVG Export Plug-In . SVG Version: 6.00 Build 0)  -->
<!DOCTYPE svg PUBLIC "-//W3C//DTD SVG 1.1//EN" "http://www.w3.org/Graphics/SVG/1.1/DTD/svg11.dtd">
<svg version="1.1" id="Capa_1" xmlns="http://www.w3.org/2000/svg" xmlns:xlink="http://www.w3.org/1999/xlink" x="0px" y="0px"
	 width="23.741px" height="24.181px" viewBox="48.738 -1.062 23.741 24.181" enable-background="new 48.738 -1.062 23.741 24.181"
	 xml:space="preserve">
<g>
	<g>
		<path d="M60.609-1.062c-6.556,0-11.871,5.414-11.871,12.09c0,6.677,5.315,12.09,11.871,12.09c6.554,0,11.87-5.413,11.87-12.09
			C72.479,4.352,67.163-1.062,60.609-1.062z M66.877,16.579l-0.95,0.969c-0.17,0.173-0.667,0.279-0.683,0.279
			c-3.007,0.027-5.902-1.176-8.029-3.343c-2.133-2.174-3.315-5.133-3.283-8.206c0-0.001,0.108-0.493,0.278-0.664l0.951-0.968
			c0.347-0.356,1.015-0.517,1.482-0.357l0.2,0.068c0.468,0.159,0.957,0.685,1.085,1.169l0.479,1.787
			c0.128,0.485-0.046,1.176-0.394,1.53L57.381,9.49c0.623,2.35,2.433,4.193,4.739,4.829l0.635-0.646
			c0.349-0.355,1.027-0.532,1.502-0.401l1.756,0.488c0.475,0.133,0.991,0.63,1.146,1.104l0.067,0.206
			C67.382,15.546,67.226,16.227,66.877,16.579z"/>
	</g>
	<g>
	</g>
	<g>
	</g>
	<g>
	</g>
	<g>
	</g>
	<g>
	</g>
	<g>
	</g>
	<g>
	</g>
	<g>
	</g>
	<g>
	</g>
	<g>
	</g>
	<g>
	</g>
	<g>
	</g>
	<g>
	</g>
	<g>
	</g>
	<g>
	</g>
</g>
</svg>
