<?xml version="1.0" encoding="utf-8"?>
<!-- Generator: Adobe Illustrator 16.0.0, SVG Export Plug-In . SVG Version: 6.00 Build 0)  -->
<!DOCTYPE svg PUBLIC "-//W3C//DTD SVG 1.1//EN" "http://www.w3.org/Graphics/SVG/1.1/DTD/svg11.dtd">
<svg version="1.1" id="Capa_1" xmlns="http://www.w3.org/2000/svg" xmlns:xlink="http://www.w3.org/1999/xlink" x="0px" y="0px"
	 width="31.656px" height="32.242px" viewBox="5.275 5.825 31.656 32.242" enable-background="new 5.275 5.825 31.656 32.242"
	 xml:space="preserve">
<g>
	<g>
		<g>
			<polygon points="13.591,23.135 14.845,23.135 14.845,30.052 16.033,30.052 16.033,23.135 17.311,23.135 17.311,22.004 
				13.591,22.004 			"/>
			<path d="M23.628,23.981c-0.393,0-0.76,0.217-1.104,0.65v-2.631h-1.066v8.048h1.066V29.47c0.359,0.451,0.723,0.665,1.104,0.665
				c0.426,0,0.712-0.228,0.855-0.673c0.068-0.258,0.107-0.656,0.107-1.207v-2.389c0-0.568-0.039-0.969-0.107-1.205
				C24.339,24.207,24.054,23.981,23.628,23.981z M23.521,28.339c0,0.541-0.154,0.808-0.464,0.808c-0.173,0-0.352-0.083-0.532-0.267
				v-3.653c0.181-0.182,0.359-0.27,0.532-0.27c0.31,0,0.464,0.281,0.464,0.823V28.339z"/>
			<path d="M19.467,28.637c-0.236,0.342-0.458,0.507-0.674,0.507c-0.141,0-0.226-0.083-0.248-0.252
				c-0.011-0.035-0.011-0.168-0.011-0.422v-4.418h-1.066v4.741c0,0.426,0.034,0.713,0.091,0.894c0.109,0.303,0.346,0.446,0.69,0.446
				c0.393,0,0.795-0.238,1.218-0.734v0.653h1.066v-5.998h-1.069v4.585h0.003V28.637z"/>
			<path d="M20.381,18.512c0.348,0,0.515-0.281,0.515-0.842v-2.55c0-0.559-0.167-0.841-0.515-0.841
				c-0.346,0-0.513,0.281-0.513,0.841v2.55C19.87,18.231,20.036,18.512,20.381,18.512z"/>
			<path d="M21.102,5.825c-8.738,0-15.827,7.217-15.827,16.122c0,8.901,7.085,16.12,15.827,16.12c8.74,0,15.829-7.216,15.829-16.12
				C36.931,13.042,29.844,5.825,21.102,5.825z M22.864,13.365h1.076v4.463c0,0.258,0,0.393,0.014,0.428
				c0.024,0.172,0.11,0.256,0.253,0.256c0.216,0,0.443-0.169,0.68-0.514v-4.634h1.078v6.062h-1.078v-0.661
				c-0.428,0.501-0.838,0.745-1.23,0.745c-0.348,0-0.588-0.145-0.698-0.452c-0.06-0.183-0.094-0.472-0.094-0.901V13.365
				L22.864,13.365z M18.791,15.343c0-0.648,0.108-1.123,0.337-1.427c0.298-0.414,0.718-0.623,1.254-0.623
				c0.543,0,0.962,0.209,1.259,0.623c0.225,0.305,0.335,0.779,0.335,1.427v2.124c0,0.644-0.11,1.123-0.335,1.424
				c-0.296,0.415-0.716,0.621-1.259,0.621c-0.536,0-0.956-0.207-1.254-0.621c-0.229-0.302-0.337-0.781-0.337-1.424V15.343z
				 M15.906,11.292l0.85,3.193l0.817-3.193h1.209l-1.439,4.84v3.294h-1.195v-3.293c-0.11-0.584-0.349-1.438-0.734-2.575
				c-0.25-0.753-0.514-1.512-0.766-2.265L15.906,11.292L15.906,11.292z M29.62,30.579c-0.213,0.959-0.979,1.664-1.905,1.77
				c-2.19,0.25-4.405,0.25-6.613,0.25c-2.206,0-4.422,0-6.612-0.25c-0.927-0.106-1.693-0.811-1.909-1.77
				c-0.308-1.358-0.308-2.848-0.308-4.248c0-1.405,0.003-2.891,0.311-4.252c0.217-0.956,0.983-1.662,1.909-1.766
				c2.188-0.25,4.405-0.251,6.614-0.25c2.207-0.001,4.423,0,6.611,0.25c0.927,0.105,1.691,0.811,1.909,1.766
				c0.305,1.363,0.305,2.849,0.305,4.252C29.931,27.731,29.931,29.221,29.62,30.579z"/>
			<path d="M27.031,23.981c-0.551,0-0.974,0.204-1.28,0.615c-0.229,0.298-0.331,0.768-0.331,1.409v2.102
				c0,0.638,0.114,1.11,0.346,1.408c0.307,0.41,0.732,0.613,1.291,0.613c0.56,0,0.996-0.214,1.291-0.65
				c0.131-0.193,0.214-0.41,0.249-0.651c0.011-0.109,0.022-0.349,0.022-0.703v-0.155H27.53c0,0.431-0.013,0.676-0.021,0.733
				c-0.063,0.292-0.215,0.436-0.477,0.436c-0.368,0-0.55-0.275-0.55-0.828v-1.064h2.136v-1.244c0-0.641-0.104-1.111-0.329-1.413
				C27.99,24.185,27.563,23.981,27.031,23.981z M27.548,26.344h-1.066v-0.554c0-0.557,0.18-0.834,0.533-0.834
				s0.533,0.28,0.533,0.834V26.344z"/>
		</g>
	</g>
</g>
</svg>
